{"title":"Die Welle aka The Wave (2008) - 1080p x265 HEVC + 1080p x264 - G","uid":14818670,"size":2435977746,"categoryP":"video","categoryS":"hd___movies","magnet":"?xt=urn:btih:c9dd7736370cef4a207d92adb5e8b4728bcee2d3&amp;dn=Die+Welle+aka+The+Wave+%282008%29+-+1080p+x265+HEVC+%2B+1080p+x264+-+G&amp;tr=udp%3A%2F%2Ftracker.leechers-paradise.org%3A6969&amp;tr=udp%3A%2F%2Fzer0day.ch%3A1337&amp;tr=udp%3A%2F%2Fopen.demonii.com%3A1337&amp;tr=udp%3A%2F%2Ftracker.coppersurfer.tk%3A6969&amp;tr=udp%3A%2F%2Fexodus.desync.com%3A6969","seeders":2,"leechers":3,"uploader":"BRSHNKV","files":3,"time":1465249259,"description":"Professor Rainer Wenger is placed to teach autocracy. To illustrate better, it forms a fascist government in the classroom.\r\n\r\n\r\nTechnical x264:\r\n\r\nFormat : MPEG-4\r\nFormat profile : Base Media / Version 2\r\nCodec ID : mp42\r\nFile size : 1.32 GiB\r\nDuration : 1h 46mn\r\nOverall bit rate mode : Variable\r\nOverall bit rate : 1 768 Kbps\r\nMovie name : Die Welle 1080p x264 [BRSHNKV]\r\nEncoded date : UTC 2016-06-05 05:15:58\r\nTagged date : UTC 2016-06-05 05:15:58\r\nWriting application : HandBrake 0.10.2 2015061100\r\n\r\nVideo\r\nID : 1\r\nFormat : AVC\r\nFormat/Info : Advanced Video Codec\r\nFormat profile :   \r\nFormat settings, CABAC : Yes\r\nFormat settings, ReFrames : 5 frames\r\nCodec ID : avc1\r\nCodec ID/Info : Advanced Video Coding\r\nDuration : 1h 46mn\r\nBit rate : 1 600 Kbps\r\nWidth : 1 916 pixels\r\nHeight : 816 pixels\r\nDisplay aspect ratio : 2.35:1\r\nFrame rate mode : Constant\r\nFrame rate : 24.000 fps\r\nColor space : YUV\r\nChroma subsampling : 4:2:0\r\nBit depth : 8 bits\r\nScan type : Progressive\r\nBits/(Pixel*Frame) : 0.043\r\nStream size : 1.19 GiB (90%)\r\nWriting library : x264 core 142 r2479 dd79a61\r\nEncoded date : UTC 2016-06-05 05:15:58\r\nTagged date : UTC 2016-06-05 05:15:58\r\nColor range : Limited\r\nColor primaries : BT.709\r\nTransfer characteristics : BT.709\r\nMatrix coefficients : BT.709\r\n\r\nAudio\r\nID : 2\r\nFormat : AAC\r\nFormat/Info : Advanced Audio Codec\r\nFormat profile : LC\r\nCodec ID : 40\r\nDuration : 1h 46mn\r\nBit rate mode : Variable\r\nBit rate : 165 Kbps\r\nChannel(s) : 2 channels\r\nChannel positions : Front: L R\r\nSampling rate : 48.0 KHz\r\nCompression mode : Lossy\r\nStream size : 126 MiB (9%)\r\nTitle : Stereo / Stereo\r\nLanguage : German\r\nEncoded date : UTC 2016-06-05 05:15:58\r\nTagged date : UTC 2016-06-05 05:15:58\r\n\r\n_______________________________________\r\n\r\n\r\nTechnical x265:\r\n\r\nFormat : MPEG-4\r\nFormat profile : Base Media / Version 2\r\nCodec ID : mp42\r\nFile size : 972 MiB\r\nDuration : 1h 46mn\r\nOverall bit rate mode : Variable\r\nOverall bit rate : 1 271 Kbps\r\nMovie name : Die Welle 1080p x265 [BRSHNKV]\r\nEncoded date : UTC 2016-06-04 14:43:03\r\nTagged date : UTC 2016-06-04 14:43:03\r\nWriting application : HandBrake 20160211184813-ffd8cb1-master 2016021301\r\n\r\nVideo\r\nID : 1\r\nFormat : HEVC\r\nFormat/Info : High Efficiency Video Coding\r\nFormat profile : Main   @Main\r\nCodec ID : hev1\r\nCodec ID/Info : High Efficiency Video Coding\r\nDuration : 1h 46mn\r\nBit rate : 1 100 Kbps\r\nWidth : 1 916 pixels\r\nHeight : 816 pixels\r\nDisplay aspect ratio : 2.35:1\r\nFrame rate mode : Constant\r\nFrame rate : 24.000 fps\r\nColor space : YUV\r\nChroma subsampling : 4:2:0\r\nBit depth : 10 bits\r\nBits/(Pixel*Frame) : 0.029\r\nStream size : 841 MiB (87%)\r\nWriting library : x265 1.9:[Mac OS X][clang 7.0.2][64 bit] 10bit\r\nEncoded date : UTC 2016-06-04 14:43:03\r\nTagged date : UTC 2016-06-04 14:43:03\r\nColor range : Limited\r\nColor primaries : BT.709\r\nTransfer characteristics : BT.709\r\nMatrix coefficients : BT.709\r\n\r\nAudio\r\nID : 2\r\nFormat : AAC\r\nFormat/Info : Advanced Audio Codec\r\nFormat profile : LC\r\nCodec ID : 40\r\nDuration : 1h 46mn\r\nBit rate mode : Variable\r\nBit rate : 165 Kbps\r\nChannel(s) : 2 channels\r\nChannel positions : Front: L R\r\nSampling rate : 48.0 KHz\r\nCompression mode : Lossy\r\nStream size : 126 MiB (13%)\r\nTitle : Stereo / Stereo\r\nLanguage : German\r\nEncoded date : UTC 2016-06-04 14:43:03\r\nTagged date : UTC 2016-06-04 14:43:03","torrent":{"xt":"urn:btih:c9dd7736370cef4a207d92adb5e8b4728bcee2d3","amp;dn":"Die+Welle+aka+The+Wave+%282008%29+-+1080p+x265+HEVC+%2B+1080p+x264+-+G","amp;tr":["udp%3A%2F%2Ftracker.leechers-paradise.org%3A6969","udp%3A%2F%2Fzer0day.ch%3A1337","udp%3A%2F%2Fopen.demonii.com%3A1337","udp%3A%2F%2Ftracker.coppersurfer.tk%3A6969","udp%3A%2F%2Fexodus.desync.com%3A6969"],"infoHash":"c9dd7736370cef4a207d92adb5e8b4728bcee2d3","infoHashBuffer":{"type":"Buffer","data":[201,221,119,54,55,12,239,74,32,125,146,173,181,232,180,114,139,206,226,211]},"announce":[],"urlList":[]}}